<svg xmlns="http://www.w3.org/2000/svg" version="1.1" stroke="none" viewBox="0 0 30 30"><path d="M 10,25 0,20 v 10 l 10,-5" fill="#8abeb7"/><path d="M 10,15 0,10 v 10 l 10,-5" fill="#8abeb7"/><path d="m 0,20 10,5 V 15 L 0,20" fill="#b5bd68"/><path d="M 20,20 10,15 v 10 l 10,-5" fill="#f0c674"/><path d="M 30,15 20,10 v 10 l 10,-5" fill="#cc6666"/><path d="m 10,15 10,5 V 10 l -10,5" fill="#de935f"/><path d="M 20,10 10,5 v 10 l 10,-5" fill="#f0c674"/><path d="m 0,10 10,5 V 5 L 0,10" fill="#b5bd68"/><path d="M 10,5 0,0 V 10 L 10,5" fill="#8abeb7"/></svg>
